<svg width="350" height="220" viewBox="0 0 350 220" fill="none" xmlns="http://www.w3.org/2000/svg">
<rect width="350" height="220" fill="#292E39"/>
<path d="M97.2553 156.8H106.471V158.08H102.535V168H101.191V158.08H97.2553V156.8ZM109.635 166.544L112.227 160.32H113.587L109.811 169.152C109.075 170.859 108.109 171.712 106.915 171.712C106.627 171.712 106.349 171.675 106.083 171.6V170.496C106.307 170.56 106.531 170.592 106.755 170.592C107.576 170.592 108.237 169.968 108.739 168.72L109.027 168.016L105.379 160.32H106.739L109.635 166.544ZM118.212 168H116.932V161.504H114.1V160.32H121.028V161.504H118.212V168ZM133.969 164.384C133.969 165.568 133.607 166.501 132.881 167.184C132.167 167.856 131.223 168.192 130.049 168.192C128.855 168.192 127.889 167.797 127.153 167.008C126.428 166.219 126.065 165.115 126.065 163.696C126.065 162.459 126.279 161.392 126.705 160.496C127.132 159.6 127.708 158.928 128.433 158.48C128.924 158.181 129.431 157.947 129.953 157.776C130.487 157.595 130.924 157.483 131.265 157.44C131.617 157.397 131.98 157.312 132.353 157.184C132.727 157.045 133.036 156.853 133.281 156.608V157.952C132.983 158.165 132.615 158.325 132.177 158.432C131.74 158.528 131.255 158.645 130.721 158.784C130.188 158.923 129.676 159.136 129.185 159.424C128.705 159.712 128.332 160.075 128.065 160.512C127.799 160.949 127.564 161.472 127.361 162.08C127.639 161.653 128.033 161.307 128.545 161.04C129.057 160.773 129.607 160.64 130.193 160.64C131.228 160.64 132.113 160.987 132.849 161.68C133.596 162.373 133.969 163.275 133.969 164.384ZM127.345 164.416C127.345 165.152 127.591 165.765 128.081 166.256C128.572 166.736 129.217 166.976 130.017 166.976C130.839 166.976 131.489 166.736 131.969 166.256C132.449 165.776 132.689 165.163 132.689 164.416C132.689 163.669 132.449 163.056 131.969 162.576C131.489 162.096 130.839 161.856 130.017 161.856C129.249 161.856 128.609 162.117 128.097 162.64C127.596 163.152 127.345 163.744 127.345 164.416ZM138.697 166.544L141.289 160.32H142.649L138.873 169.152C138.137 170.859 137.172 171.712 135.977 171.712C135.689 171.712 135.412 171.675 135.145 171.6V170.496C135.369 170.56 135.593 170.592 135.817 170.592C136.639 170.592 137.3 169.968 137.801 168.72L138.089 168.016L134.441 160.32H135.801L138.697 166.544ZM143.898 170.08H142.65V166.848H143.674C144.581 165.248 145.018 163.072 144.986 160.32H150.714V166.848H151.834V170.08H150.586V168H143.898V170.08ZM146.218 161.472C146.165 163.573 145.781 165.365 145.066 166.848H149.434V161.472H146.218ZM152.859 164.16C152.859 162.901 153.243 161.915 154.011 161.2C154.79 160.485 155.68 160.128 156.683 160.128C157.622 160.128 158.395 160.363 159.003 160.832C159.622 161.301 160.027 161.883 160.219 162.576C160.411 163.259 160.422 163.973 160.251 164.72H154.139C154.214 165.477 154.55 166.048 155.147 166.432C155.744 166.816 156.464 167.008 157.307 167.008C158.246 167.008 159.088 166.8 159.835 166.384V167.632C159.12 168.005 158.214 168.192 157.115 168.192C155.899 168.192 154.886 167.845 154.075 167.152C153.264 166.459 152.859 165.461 152.859 164.16ZM159.115 163.6C159.147 163.376 159.131 163.141 159.067 162.896C159.003 162.651 158.886 162.405 158.715 162.16C158.555 161.915 158.304 161.712 157.963 161.552C157.622 161.392 157.222 161.312 156.763 161.312C156.07 161.312 155.467 161.515 154.955 161.92C154.454 162.325 154.182 162.885 154.139 163.6H159.115ZM165.165 168H163.885V161.504H161.053V160.32H167.981V161.504H165.165V168ZM178.65 171.52H177.37V168.192C176.069 168.16 174.992 167.781 174.138 167.056C173.296 166.32 172.874 165.355 172.874 164.16C172.874 162.965 173.296 162.005 174.138 161.28C174.992 160.544 176.069 160.16 177.37 160.128V156.8H178.65V160.128C179.952 160.16 181.024 160.544 181.866 161.28C182.72 162.005 183.146 162.965 183.146 164.16C183.146 165.355 182.72 166.32 181.866 167.056C181.024 167.781 179.952 168.16 178.65 168.192V171.52ZM175.018 162.08C174.442 162.592 174.154 163.285 174.154 164.16C174.154 165.035 174.442 165.733 175.018 166.256C175.605 166.768 176.389 167.04 177.37 167.072V161.248C176.389 161.28 175.605 161.557 175.018 162.08ZM178.65 161.248V167.072C179.632 167.04 180.41 166.768 180.986 166.256C181.573 165.733 181.866 165.035 181.866 164.16C181.866 163.285 181.573 162.592 180.986 162.08C180.41 161.557 179.632 161.28 178.65 161.248ZM185.653 167.12C184.843 166.395 184.437 165.408 184.437 164.16C184.437 162.912 184.843 161.931 185.653 161.216C186.464 160.491 187.424 160.128 188.533 160.128C189.653 160.128 190.613 160.491 191.413 161.216C192.224 161.931 192.629 162.912 192.629 164.16C192.629 165.408 192.224 166.395 191.413 167.12C190.613 167.835 189.653 168.192 188.533 168.192C187.424 168.192 186.464 167.835 185.653 167.12ZM190.549 166.224C191.083 165.712 191.349 165.024 191.349 164.16C191.349 163.296 191.083 162.613 190.549 162.112C190.016 161.6 189.344 161.344 188.533 161.344C187.723 161.344 187.051 161.6 186.517 162.112C185.984 162.613 185.717 163.296 185.717 164.16C185.717 165.024 185.984 165.712 186.517 166.224C187.051 166.725 187.723 166.976 188.533 166.976C189.344 166.976 190.016 166.725 190.549 166.224ZM197.415 168H196.135V161.504H193.303V160.32H200.231V161.504H197.415V168ZM202.122 167.12C201.311 166.395 200.906 165.408 200.906 164.16C200.906 162.912 201.311 161.931 202.122 161.216C202.933 160.491 203.893 160.128 205.002 160.128C206.122 160.128 207.082 160.491 207.882 161.216C208.693 161.931 209.098 162.912 209.098 164.16C209.098 165.408 208.693 166.395 207.882 167.12C207.082 167.835 206.122 168.192 205.002 168.192C203.893 168.192 202.933 167.835 202.122 167.12ZM207.018 166.224C207.551 165.712 207.818 165.024 207.818 164.16C207.818 163.296 207.551 162.613 207.018 162.112C206.485 161.6 205.813 161.344 205.002 161.344C204.191 161.344 203.519 161.6 202.986 162.112C202.453 162.613 202.186 163.296 202.186 164.16C202.186 165.024 202.453 165.712 202.986 166.224C203.519 166.725 204.191 166.976 205.002 166.976C205.813 166.976 206.485 166.725 207.018 166.224ZM216.198 168H214.918V160.32H220.534V161.504H216.198V168ZM222.403 167.12C221.593 166.395 221.187 165.408 221.187 164.16C221.187 162.912 221.593 161.931 222.403 161.216C223.214 160.491 224.174 160.128 225.283 160.128C226.403 160.128 227.363 160.491 228.163 161.216C228.974 161.931 229.379 162.912 229.379 164.16C229.379 165.408 228.974 166.395 228.163 167.12C227.363 167.835 226.403 168.192 225.283 168.192C224.174 168.192 223.214 167.835 222.403 167.12ZM227.299 166.224C227.833 165.712 228.099 165.024 228.099 164.16C228.099 163.296 227.833 162.613 227.299 162.112C226.766 161.6 226.094 161.344 225.283 161.344C224.473 161.344 223.801 161.6 223.267 162.112C222.734 162.613 222.467 163.296 222.467 164.16C222.467 165.024 222.734 165.712 223.267 166.224C223.801 166.725 224.473 166.976 225.283 166.976C226.094 166.976 226.766 166.725 227.299 166.224ZM230.687 164.192C230.687 163.52 230.81 162.917 231.055 162.384C231.301 161.851 231.621 161.424 232.015 161.104C232.421 160.784 232.863 160.544 233.343 160.384C233.834 160.213 234.335 160.128 234.847 160.128C235.797 160.128 236.586 160.336 237.215 160.752V162C236.629 161.541 235.893 161.312 235.007 161.312C234.175 161.312 233.461 161.552 232.863 162.032C232.266 162.512 231.967 163.221 231.967 164.16C231.967 165.088 232.261 165.797 232.847 166.288C233.445 166.768 234.154 167.008 234.975 167.008C235.829 167.008 236.602 166.8 237.295 166.384V167.664C236.57 168.016 235.738 168.192 234.799 168.192C233.69 168.192 232.725 167.845 231.903 167.152C231.093 166.459 230.687 165.472 230.687 164.192ZM242.368 168H241.088V161.504H238.256V160.32H245.184V161.504H242.368V168ZM247.249 168H245.745L247.969 165.184C247.382 165.013 246.929 164.715 246.609 164.288C246.289 163.861 246.129 163.371 246.129 162.816C246.129 162.112 246.385 161.52 246.897 161.04C247.409 160.56 248.113 160.32 249.009 160.32H252.785V168H251.505V165.312H249.345L247.249 168ZM247.857 161.824C247.558 162.059 247.409 162.389 247.409 162.816C247.409 163.243 247.558 163.573 247.857 163.808C248.166 164.043 248.588 164.16 249.121 164.16H251.505V161.472H249.121C248.588 161.472 248.166 161.589 247.857 161.824Z" fill="#A1A6B4"/>
<path d="M207.833 133.875V125.792C207.833 121.504 206.13 117.392 203.098 114.36C200.066 111.328 195.954 109.625 191.666 109.625H159.333C155.046 109.625 150.933 111.328 147.902 114.36C144.87 117.392 143.167 121.504 143.167 125.792V133.875" stroke="#A1A6B4" stroke-width="2" stroke-linecap="round" stroke-linejoin="round"/>
<path d="M175.5 93.4583C184.429 93.4583 191.667 86.2203 191.667 77.2917C191.667 68.3631 184.429 61.125 175.5 61.125C166.572 61.125 159.333 68.3631 159.333 77.2917C159.333 86.2203 166.572 93.4583 175.5 93.4583Z" stroke="#A1A6B4" stroke-width="2" stroke-linecap="round" stroke-linejoin="round"/>
</svg>
