<svg width="540" height="220" viewBox="0 0 540 220" fill="none" xmlns="http://www.w3.org/2000/svg">
<rect width="540" height="220" fill="#292E39"/>
<path d="M201.536 170.2H209.6V171.32H206.156V180H204.98V171.32H201.536V170.2ZM212.368 178.726L214.636 173.28H215.826L212.522 181.008C211.878 182.501 211.033 183.248 209.988 183.248C209.736 183.248 209.493 183.215 209.26 183.15V182.184C209.456 182.24 209.652 182.268 209.848 182.268C210.567 182.268 211.145 181.722 211.584 180.63L211.836 180.014L208.644 173.28H209.834L212.368 178.726ZM219.873 180H218.753V174.316H216.275V173.28H222.337V174.316H219.873V180ZM233.661 176.836C233.661 177.872 233.343 178.689 232.709 179.286C232.083 179.874 231.257 180.168 230.231 180.168C229.185 180.168 228.341 179.823 227.697 179.132C227.062 178.441 226.745 177.475 226.745 176.234C226.745 175.151 226.931 174.218 227.305 173.434C227.678 172.65 228.182 172.062 228.817 171.67C229.246 171.409 229.689 171.203 230.147 171.054C230.613 170.895 230.996 170.797 231.295 170.76C231.603 170.723 231.92 170.648 232.247 170.536C232.573 170.415 232.844 170.247 233.059 170.032V171.208C232.797 171.395 232.475 171.535 232.093 171.628C231.71 171.712 231.285 171.815 230.819 171.936C230.352 172.057 229.904 172.244 229.475 172.496C229.055 172.748 228.728 173.065 228.495 173.448C228.261 173.831 228.056 174.288 227.879 174.82C228.121 174.447 228.467 174.143 228.915 173.91C229.363 173.677 229.843 173.56 230.357 173.56C231.262 173.56 232.037 173.863 232.681 174.47C233.334 175.077 233.661 175.865 233.661 176.836ZM227.865 176.864C227.865 177.508 228.079 178.045 228.509 178.474C228.938 178.894 229.503 179.104 230.203 179.104C230.921 179.104 231.491 178.894 231.911 178.474C232.331 178.054 232.541 177.517 232.541 176.864C232.541 176.211 232.331 175.674 231.911 175.254C231.491 174.834 230.921 174.624 230.203 174.624C229.531 174.624 228.971 174.853 228.523 175.31C228.084 175.758 227.865 176.276 227.865 176.864ZM237.798 178.726L240.066 173.28H241.256L237.952 181.008C237.308 182.501 236.463 183.248 235.418 183.248C235.166 183.248 234.923 183.215 234.69 183.15V182.184C234.886 182.24 235.082 182.268 235.278 182.268C235.996 182.268 236.575 181.722 237.014 180.63L237.266 180.014L234.074 173.28H235.264L237.798 178.726ZM242.349 181.82H241.257V178.992H242.153C242.946 177.592 243.329 175.688 243.301 173.28H248.313V178.992H249.293V181.82H248.201V180H242.349V181.82ZM244.379 174.288C244.332 176.127 243.996 177.695 243.371 178.992H247.193V174.288H244.379ZM250.189 176.64C250.189 175.539 250.525 174.675 251.197 174.05C251.879 173.425 252.658 173.112 253.535 173.112C254.357 173.112 255.033 173.317 255.565 173.728C256.107 174.139 256.461 174.647 256.629 175.254C256.797 175.851 256.807 176.477 256.657 177.13H251.309C251.375 177.793 251.669 178.292 252.191 178.628C252.714 178.964 253.344 179.132 254.081 179.132C254.903 179.132 255.64 178.95 256.293 178.586V179.678C255.668 180.005 254.875 180.168 253.913 180.168C252.849 180.168 251.963 179.865 251.253 179.258C250.544 178.651 250.189 177.779 250.189 176.64ZM255.663 176.15C255.691 175.954 255.677 175.749 255.621 175.534C255.565 175.319 255.463 175.105 255.313 174.89C255.173 174.675 254.954 174.498 254.655 174.358C254.357 174.218 254.007 174.148 253.605 174.148C252.999 174.148 252.471 174.325 252.023 174.68C251.585 175.035 251.347 175.525 251.309 176.15H255.663ZM260.957 180H259.837V174.316H257.359V173.28H263.421V174.316H260.957V180ZM272.757 183.08H271.637V180.168C270.498 180.14 269.555 179.809 268.809 179.174C268.071 178.53 267.703 177.685 267.703 176.64C267.703 175.595 268.071 174.755 268.809 174.12C269.555 173.476 270.498 173.14 271.637 173.112V170.2H272.757V173.112C273.895 173.14 274.833 173.476 275.571 174.12C276.317 174.755 276.691 175.595 276.691 176.64C276.691 177.685 276.317 178.53 275.571 179.174C274.833 179.809 273.895 180.14 272.757 180.168V183.08ZM269.579 174.82C269.075 175.268 268.823 175.875 268.823 176.64C268.823 177.405 269.075 178.017 269.579 178.474C270.092 178.922 270.778 179.16 271.637 179.188V174.092C270.778 174.12 270.092 174.363 269.579 174.82ZM272.757 174.092V179.188C273.615 179.16 274.297 178.922 274.801 178.474C275.314 178.017 275.571 177.405 275.571 176.64C275.571 175.875 275.314 175.268 274.801 174.82C274.297 174.363 273.615 174.12 272.757 174.092ZM278.884 179.23C278.175 178.595 277.82 177.732 277.82 176.64C277.82 175.548 278.175 174.689 278.884 174.064C279.593 173.429 280.433 173.112 281.404 173.112C282.384 173.112 283.224 173.429 283.924 174.064C284.633 174.689 284.988 175.548 284.988 176.64C284.988 177.732 284.633 178.595 283.924 179.23C283.224 179.855 282.384 180.168 281.404 180.168C280.433 180.168 279.593 179.855 278.884 179.23ZM283.168 178.446C283.635 177.998 283.868 177.396 283.868 176.64C283.868 175.884 283.635 175.287 283.168 174.848C282.701 174.4 282.113 174.176 281.404 174.176C280.695 174.176 280.107 174.4 279.64 174.848C279.173 175.287 278.94 175.884 278.94 176.64C278.94 177.396 279.173 177.998 279.64 178.446C280.107 178.885 280.695 179.104 281.404 179.104C282.113 179.104 282.701 178.885 283.168 178.446ZM289.176 180H288.056V174.316H285.578V173.28H291.64V174.316H289.176V180ZM293.294 179.23C292.585 178.595 292.23 177.732 292.23 176.64C292.23 175.548 292.585 174.689 293.294 174.064C294.004 173.429 294.844 173.112 295.814 173.112C296.794 173.112 297.634 173.429 298.334 174.064C299.044 174.689 299.398 175.548 299.398 176.64C299.398 177.732 299.044 178.595 298.334 179.23C297.634 179.855 296.794 180.168 295.814 180.168C294.844 180.168 294.004 179.855 293.294 179.23ZM297.578 178.446C298.045 177.998 298.278 177.396 298.278 176.64C298.278 175.884 298.045 175.287 297.578 174.848C297.112 174.4 296.524 174.176 295.814 174.176C295.105 174.176 294.517 174.4 294.05 174.848C293.584 175.287 293.35 175.884 293.35 176.64C293.35 177.396 293.584 177.998 294.05 178.446C294.517 178.885 295.105 179.104 295.814 179.104C296.524 179.104 297.112 178.885 297.578 178.446ZM305.611 180H304.491V173.28H309.405V174.316H305.611V180ZM311.04 179.23C310.331 178.595 309.976 177.732 309.976 176.64C309.976 175.548 310.331 174.689 311.04 174.064C311.75 173.429 312.59 173.112 313.56 173.112C314.54 173.112 315.38 173.429 316.08 174.064C316.79 174.689 317.144 175.548 317.144 176.64C317.144 177.732 316.79 178.595 316.08 179.23C315.38 179.855 314.54 180.168 313.56 180.168C312.59 180.168 311.75 179.855 311.04 179.23ZM315.324 178.446C315.791 177.998 316.024 177.396 316.024 176.64C316.024 175.884 315.791 175.287 315.324 174.848C314.858 174.4 314.27 174.176 313.56 174.176C312.851 174.176 312.263 174.4 311.796 174.848C311.33 175.287 311.096 175.884 311.096 176.64C311.096 177.396 311.33 177.998 311.796 178.446C312.263 178.885 312.851 179.104 313.56 179.104C314.27 179.104 314.858 178.885 315.324 178.446ZM318.289 176.668C318.289 176.08 318.396 175.553 318.611 175.086C318.826 174.619 319.106 174.246 319.451 173.966C319.806 173.686 320.193 173.476 320.613 173.336C321.042 173.187 321.481 173.112 321.929 173.112C322.76 173.112 323.45 173.294 324.001 173.658V174.75C323.488 174.349 322.844 174.148 322.069 174.148C321.341 174.148 320.716 174.358 320.193 174.778C319.67 175.198 319.409 175.819 319.409 176.64C319.409 177.452 319.666 178.073 320.179 178.502C320.702 178.922 321.322 179.132 322.041 179.132C322.788 179.132 323.464 178.95 324.071 178.586V179.706C323.436 180.014 322.708 180.168 321.887 180.168C320.916 180.168 320.072 179.865 319.353 179.258C318.644 178.651 318.289 177.788 318.289 176.668ZM328.51 180H327.39V174.316H324.912V173.28H330.974V174.316H328.51V180ZM332.78 180H331.464L333.41 177.536C332.897 177.387 332.5 177.125 332.22 176.752C331.94 176.379 331.8 175.949 331.8 175.464C331.8 174.848 332.024 174.33 332.472 173.91C332.92 173.49 333.536 173.28 334.32 173.28H337.624V180H336.504V177.648H334.614L332.78 180ZM333.312 174.596C333.051 174.801 332.92 175.091 332.92 175.464C332.92 175.837 333.051 176.127 333.312 176.332C333.583 176.537 333.952 176.64 334.418 176.64H336.504V174.288H334.418C333.952 174.288 333.583 174.391 333.312 174.596Z" fill="#A1A6B4"/>
<path d="M311 143V133C311 127.696 308.893 122.609 305.142 118.858C301.391 115.107 296.304 113 291 113H251C245.696 113 240.609 115.107 236.858 118.858C233.107 122.609 231 127.696 231 133V143" stroke="#A1A6B4" stroke-width="2" stroke-linecap="round" stroke-linejoin="round"/>
<path d="M271 93C282.046 93 291 84.0457 291 73C291 61.9543 282.046 53 271 53C259.954 53 251 61.9543 251 73C251 84.0457 259.954 93 271 93Z" stroke="#A1A6B4" stroke-width="2" stroke-linecap="round" stroke-linejoin="round"/>
</svg>
