<svg width="257" height="159" viewBox="0 0 257 159" fill="none" xmlns="http://www.w3.org/2000/svg">
<rect width="257" height="159" fill="#292E39"/>
<path d="M60.5358 113.2H68.5998V114.32H65.1558V123H63.9798V114.32H60.5358V113.2ZM71.3679 121.726L73.6359 116.28H74.8259L71.5219 124.008C70.8779 125.501 70.0332 126.248 68.9879 126.248C68.7359 126.248 68.4932 126.215 68.2599 126.15V125.184C68.4559 125.24 68.6519 125.268 68.8479 125.268C69.5666 125.268 70.1452 124.722 70.5839 123.63L70.8359 123.014L67.6439 116.28H68.8339L71.3679 121.726ZM78.8731 123H77.7531V117.316H75.2751V116.28H81.3371V117.316H78.8731V123ZM92.6606 119.836C92.6606 120.872 92.3433 121.689 91.7086 122.286C91.0833 122.874 90.2573 123.168 89.2306 123.168C88.1853 123.168 87.3406 122.823 86.6966 122.132C86.0619 121.441 85.7446 120.475 85.7446 119.234C85.7446 118.151 85.9313 117.218 86.3046 116.434C86.6779 115.65 87.1819 115.062 87.8166 114.67C88.2459 114.409 88.6893 114.203 89.1466 114.054C89.6133 113.895 89.9959 113.797 90.2946 113.76C90.6026 113.723 90.9199 113.648 91.2466 113.536C91.5733 113.415 91.8439 113.247 92.0586 113.032V114.208C91.7973 114.395 91.4753 114.535 91.0926 114.628C90.7099 114.712 90.2853 114.815 89.8186 114.936C89.3519 115.057 88.9039 115.244 88.4746 115.496C88.0546 115.748 87.7279 116.065 87.4946 116.448C87.2613 116.831 87.0559 117.288 86.8786 117.82C87.1213 117.447 87.4666 117.143 87.9146 116.91C88.3626 116.677 88.8433 116.56 89.3566 116.56C90.2619 116.56 91.0366 116.863 91.6806 117.47C92.3339 118.077 92.6606 118.865 92.6606 119.836ZM86.8646 119.864C86.8646 120.508 87.0793 121.045 87.5086 121.474C87.9379 121.894 88.5026 122.104 89.2026 122.104C89.9213 122.104 90.4906 121.894 90.9106 121.474C91.3306 121.054 91.5406 120.517 91.5406 119.864C91.5406 119.211 91.3306 118.674 90.9106 118.254C90.4906 117.834 89.9213 117.624 89.2026 117.624C88.5306 117.624 87.9706 117.853 87.5226 118.31C87.0839 118.758 86.8646 119.276 86.8646 119.864ZM96.7976 121.726L99.0656 116.28H100.256L96.9516 124.008C96.3076 125.501 95.4629 126.248 94.4176 126.248C94.1656 126.248 93.9229 126.215 93.6896 126.15V125.184C93.8856 125.24 94.0816 125.268 94.2776 125.268C94.9963 125.268 95.5749 124.722 96.0136 123.63L96.2656 123.014L93.0736 116.28H94.2636L96.7976 121.726ZM101.349 124.82H100.257V121.992H101.153C101.946 120.592 102.329 118.688 102.301 116.28H107.313V121.992H108.293V124.82H107.201V123H101.349V124.82ZM103.379 117.288C103.332 119.127 102.996 120.695 102.371 121.992H106.193V117.288H103.379ZM109.189 119.64C109.189 118.539 109.525 117.675 110.197 117.05C110.879 116.425 111.658 116.112 112.535 116.112C113.357 116.112 114.033 116.317 114.565 116.728C115.107 117.139 115.461 117.647 115.629 118.254C115.797 118.851 115.807 119.477 115.657 120.13H110.309C110.375 120.793 110.669 121.292 111.191 121.628C111.714 121.964 112.344 122.132 113.081 122.132C113.903 122.132 114.64 121.95 115.293 121.586V122.678C114.668 123.005 113.875 123.168 112.913 123.168C111.849 123.168 110.963 122.865 110.253 122.258C109.544 121.651 109.189 120.779 109.189 119.64ZM114.663 119.15C114.691 118.954 114.677 118.749 114.621 118.534C114.565 118.319 114.463 118.105 114.313 117.89C114.173 117.675 113.954 117.498 113.655 117.358C113.357 117.218 113.007 117.148 112.605 117.148C111.999 117.148 111.471 117.325 111.023 117.68C110.585 118.035 110.347 118.525 110.309 119.15H114.663ZM119.957 123H118.837V117.316H116.359V116.28H122.421V117.316H119.957V123ZM131.757 126.08H130.637V123.168C129.498 123.14 128.555 122.809 127.809 122.174C127.071 121.53 126.703 120.685 126.703 119.64C126.703 118.595 127.071 117.755 127.809 117.12C128.555 116.476 129.498 116.14 130.637 116.112V113.2H131.757V116.112C132.895 116.14 133.833 116.476 134.571 117.12C135.317 117.755 135.691 118.595 135.691 119.64C135.691 120.685 135.317 121.53 134.571 122.174C133.833 122.809 132.895 123.14 131.757 123.168V126.08ZM128.579 117.82C128.075 118.268 127.823 118.875 127.823 119.64C127.823 120.405 128.075 121.017 128.579 121.474C129.092 121.922 129.778 122.16 130.637 122.188V117.092C129.778 117.12 129.092 117.363 128.579 117.82ZM131.757 117.092V122.188C132.615 122.16 133.297 121.922 133.801 121.474C134.314 121.017 134.571 120.405 134.571 119.64C134.571 118.875 134.314 118.268 133.801 117.82C133.297 117.363 132.615 117.12 131.757 117.092ZM137.884 122.23C137.175 121.595 136.82 120.732 136.82 119.64C136.82 118.548 137.175 117.689 137.884 117.064C138.593 116.429 139.433 116.112 140.404 116.112C141.384 116.112 142.224 116.429 142.924 117.064C143.633 117.689 143.988 118.548 143.988 119.64C143.988 120.732 143.633 121.595 142.924 122.23C142.224 122.855 141.384 123.168 140.404 123.168C139.433 123.168 138.593 122.855 137.884 122.23ZM142.168 121.446C142.635 120.998 142.868 120.396 142.868 119.64C142.868 118.884 142.635 118.287 142.168 117.848C141.701 117.4 141.113 117.176 140.404 117.176C139.695 117.176 139.107 117.4 138.64 117.848C138.173 118.287 137.94 118.884 137.94 119.64C137.94 120.396 138.173 120.998 138.64 121.446C139.107 121.885 139.695 122.104 140.404 122.104C141.113 122.104 141.701 121.885 142.168 121.446ZM148.176 123H147.056V117.316H144.578V116.28H150.64V117.316H148.176V123ZM152.294 122.23C151.585 121.595 151.23 120.732 151.23 119.64C151.23 118.548 151.585 117.689 152.294 117.064C153.004 116.429 153.844 116.112 154.814 116.112C155.794 116.112 156.634 116.429 157.334 117.064C158.044 117.689 158.398 118.548 158.398 119.64C158.398 120.732 158.044 121.595 157.334 122.23C156.634 122.855 155.794 123.168 154.814 123.168C153.844 123.168 153.004 122.855 152.294 122.23ZM156.578 121.446C157.045 120.998 157.278 120.396 157.278 119.64C157.278 118.884 157.045 118.287 156.578 117.848C156.112 117.4 155.524 117.176 154.814 117.176C154.105 117.176 153.517 117.4 153.05 117.848C152.584 118.287 152.35 118.884 152.35 119.64C152.35 120.396 152.584 120.998 153.05 121.446C153.517 121.885 154.105 122.104 154.814 122.104C155.524 122.104 156.112 121.885 156.578 121.446ZM164.611 123H163.491V116.28H168.405V117.316H164.611V123ZM170.04 122.23C169.331 121.595 168.976 120.732 168.976 119.64C168.976 118.548 169.331 117.689 170.04 117.064C170.75 116.429 171.59 116.112 172.56 116.112C173.54 116.112 174.38 116.429 175.08 117.064C175.79 117.689 176.144 118.548 176.144 119.64C176.144 120.732 175.79 121.595 175.08 122.23C174.38 122.855 173.54 123.168 172.56 123.168C171.59 123.168 170.75 122.855 170.04 122.23ZM174.324 121.446C174.791 120.998 175.024 120.396 175.024 119.64C175.024 118.884 174.791 118.287 174.324 117.848C173.858 117.4 173.27 117.176 172.56 117.176C171.851 117.176 171.263 117.4 170.796 117.848C170.33 118.287 170.096 118.884 170.096 119.64C170.096 120.396 170.33 120.998 170.796 121.446C171.263 121.885 171.851 122.104 172.56 122.104C173.27 122.104 173.858 121.885 174.324 121.446ZM177.289 119.668C177.289 119.08 177.396 118.553 177.611 118.086C177.826 117.619 178.106 117.246 178.451 116.966C178.806 116.686 179.193 116.476 179.613 116.336C180.042 116.187 180.481 116.112 180.929 116.112C181.76 116.112 182.45 116.294 183.001 116.658V117.75C182.488 117.349 181.844 117.148 181.069 117.148C180.341 117.148 179.716 117.358 179.193 117.778C178.67 118.198 178.409 118.819 178.409 119.64C178.409 120.452 178.666 121.073 179.179 121.502C179.702 121.922 180.322 122.132 181.041 122.132C181.788 122.132 182.464 121.95 183.071 121.586V122.706C182.436 123.014 181.708 123.168 180.887 123.168C179.916 123.168 179.072 122.865 178.353 122.258C177.644 121.651 177.289 120.788 177.289 119.668ZM187.51 123H186.39V117.316H183.912V116.28H189.974V117.316H187.51V123ZM191.78 123H190.464L192.41 120.536C191.897 120.387 191.5 120.125 191.22 119.752C190.94 119.379 190.8 118.949 190.8 118.464C190.8 117.848 191.024 117.33 191.472 116.91C191.92 116.49 192.536 116.28 193.32 116.28H196.624V123H195.504V120.648H193.614L191.78 123ZM192.312 117.596C192.051 117.801 191.92 118.091 191.92 118.464C191.92 118.837 192.051 119.127 192.312 119.332C192.583 119.537 192.952 119.64 193.418 119.64H195.504V117.288H193.418C192.952 117.288 192.583 117.391 192.312 117.596Z" fill="#A1A6B4"/>
<path d="M153.834 97.875V91.7917C153.834 88.5649 152.552 85.4702 150.27 83.1885C147.988 80.9068 144.894 79.625 141.667 79.625H117.334C114.107 79.625 111.012 80.9068 108.731 83.1885C106.449 85.4702 105.167 88.5649 105.167 91.7917V97.875" stroke="#A1A6B4" stroke-width="2" stroke-linecap="round" stroke-linejoin="round"/>
<path d="M129.5 67.4583C136.219 67.4583 141.666 62.0111 141.666 55.2917C141.666 48.5722 136.219 43.125 129.5 43.125C122.78 43.125 117.333 48.5722 117.333 55.2917C117.333 62.0111 122.78 67.4583 129.5 67.4583Z" stroke="#A1A6B4" stroke-width="2" stroke-linecap="round" stroke-linejoin="round"/>
</svg>
